<?xml version="1.0" encoding="UTF-8" standalone="no"?>
<!-- Created with Inkscape (http://www.inkscape.org/) -->

<svg
   width="1189mm"
   height="841mm"
   viewBox="0 0 4493.8584 3178.5828"
   version="1.1"
   id="svg5"
   inkscape:version="1.1.2 (b8e25be833, 2022-02-05)"
   sodipodi:docname="01.svg"
   xmlns:inkscape="http://www.inkscape.org/namespaces/inkscape"
   xmlns:sodipodi="http://sodipodi.sourceforge.net/DTD/sodipodi-0.dtd"
   xmlns:xlink="http://www.w3.org/1999/xlink"
   xmlns="http://www.w3.org/2000/svg"
   xmlns:svg="http://www.w3.org/2000/svg">
  <sodipodi:namedview
     id="namedview7"
     pagecolor="#ffffff"
     bordercolor="#666666"
     borderopacity="1.0"
     inkscape:pageshadow="2"
     inkscape:pageopacity="0.0"
     inkscape:pagecheckerboard="0"
     inkscape:document-units="mm"
     showgrid="true"
     inkscape:zoom="2.5722156"
     inkscape:cx="4489.3204"
     inkscape:cy="3212.0169"
     inkscape:window-width="1366"
     inkscape:window-height="697"
     inkscape:window-x="-8"
     inkscape:window-y="-8"
     inkscape:window-maximized="1"
     inkscape:current-layer="layer1">
    <inkscape:grid
       type="xygrid"
       id="grid287" />
  </sodipodi:namedview>
  <defs
     id="defs2">
    <linearGradient
       inkscape:collect="always"
       id="linearGradient39873-7">
      <stop
         style="stop-color:#5eb8ec;stop-opacity:1;"
         offset="0"
         id="stop1508" />
      <stop
         style="stop-color:#5eb8ec;stop-opacity:0;"
         offset="1"
         id="stop1510" />
    </linearGradient>
    <linearGradient
       inkscape:collect="always"
       id="linearGradient38880">
      <stop
         style="stop-color:#000000;stop-opacity:1;"
         offset="0"
         id="stop38876" />
      <stop
         style="stop-color:#000000;stop-opacity:0;"
         offset="1"
         id="stop38878" />
    </linearGradient>
    <clipPath
       clipPathUnits="userSpaceOnUse"
       id="clipPath25">
      <path
         d="M 0,0 H 841.89 V 595.276 H 0 Z"
         id="path23" />
    </clipPath>
    <clipPath
       clipPathUnits="userSpaceOnUse"
       id="clipPath51">
      <path
         d="M 0,0 H 841.89 V 595.276 H 0 Z"
         id="path49" />
    </clipPath>
    <clipPath
       clipPathUnits="userSpaceOnUse"
       id="clipPath71">
      <path
         d="M 0,0 H 841.89 V 595.276 H 0 Z"
         id="path69" />
    </clipPath>
    <clipPath
       clipPathUnits="userSpaceOnUse"
       id="clipPath95">
      <path
         d="M 0,0 H 841.89 V 595.276 H 0 Z"
         id="path93" />
    </clipPath>
    <clipPath
       clipPathUnits="userSpaceOnUse"
       id="clipPath111">
      <path
         d="M 0,0 H 841.89 V 595.276 H 0 Z"
         id="path109" />
    </clipPath>
    <clipPath
       clipPathUnits="userSpaceOnUse"
       id="clipPath125">
      <path
         d="M 0,0 H 841.89 V 595.276 H 0 Z"
         id="path123" />
    </clipPath>
    <clipPath
       clipPathUnits="userSpaceOnUse"
       id="clipPath149">
      <path
         d="m 607.492,377.539 10.63,-17.143 10.633,17.149 -10.629,17.137 z m 39.1,-3.67 0.637,-20.156 17.781,9.529 -0.634,20.161 z m -72.17,-11.592 17.778,-9.532 0.634,20.168 -17.773,9.527 z m 91.84,-28.557 20.163,-0.639 9.532,17.778 -20.168,0.634 z m -122.376,16.585 9.529,-17.781 20.161,0.634 -9.534,17.783 z m 128.863,-43.417 17.142,-10.634 16.83,10.435 v 0.389 l -16.835,10.439 z m -139.793,0 17.143,-10.634 17.142,10.63 -17.148,10.633 z m 12.242,-43.065 20.163,-0.639 9.531,17.778 -20.168,0.634 z m 119.753,16.585 9.529,-17.781 20.161,0.635 -9.534,17.783 z m -88.255,-27.604 0.636,-20.156 17.781,9.529 -0.633,20.161 z m 67.623,-11.592 17.778,-9.531 0.634,20.168 -17.773,9.526 z m -36.827,-3.466 10.488,-16.914 h 0.283 l 10.492,16.919 -10.629,17.138 z"
         id="path147" />
    </clipPath>
    <clipPath
       clipPathUnits="userSpaceOnUse"
       id="clipPath161">
      <path
         d="m 735.812,126.429 44.255,0.012 v 1.261 l -21.736,35.48 z"
         id="path159" />
    </clipPath>
    <clipPath
       clipPathUnits="userSpaceOnUse"
       id="clipPath173">
      <path
         d="M 495.382,119.799 474.19,85.204 495.88,49.799 h 0.033 l 20.725,33.825 v 3.185 l -20.208,32.99 z"
         id="path171" />
    </clipPath>
    <clipPath
       clipPathUnits="userSpaceOnUse"
       id="clipPath185">
      <path
         d="m 509.171,548.652 21.706,-35.432 21.222,34.635 v 0.808 z m 0.464,-70.608 h 42.464 v 0.064 l -21.211,34.623 z"
         id="path183" />
    </clipPath>
    <clipPath
       clipPathUnits="userSpaceOnUse"
       id="clipPath197">
      <path
         d="m 811.893,490.335 -29.153,14.562 16.658,-26.764 -33.041,-1.09 28.704,-15.326 -28.075,-16.45 33.057,0.219 -15.586,-27.403 28.554,15.704 1.049,-30.155 h 0.551 l 15.877,26.125 11.402,-17.188 v 103.369 l -12.694,-20.885 -17.454,26.312 z"
         id="path195" />
    </clipPath>
    <linearGradient
       inkscape:collect="always"
       xlink:href="#linearGradient38880"
       id="linearGradient38882"
       x1="450.25034"
       y1="290.73813"
       x2="918.29425"
       y2="-59.456635"
       gradientUnits="userSpaceOnUse" />
    <linearGradient
       inkscape:collect="always"
       xlink:href="#linearGradient39873-7"
       id="linearGradient894"
       x1="450.25034"
       y1="290.73813"
       x2="918.29425"
       y2="-59.456635"
       gradientUnits="userSpaceOnUse" />
  </defs>
  <g
     inkscape:label="Camada 1"
     inkscape:groupmode="layer"
     id="layer1">
    <g
       id="g15"
       inkscape:label="Manual_Francisca_V2020"
       transform="matrix(5.3420023,0,0,-5.3420598,-2.3782899,3180)">
      <path
         d="M 0,0.001 841.89,0 V 595.276 H 0 Z"
         style="opacity:1;mix-blend-mode:normal;fill:url(#linearGradient894);fill-opacity:1;fill-rule:nonzero;stroke:url(#linearGradient38882)"
         id="path17"
         sodipodi:nodetypes="ccccc" />
      <g
         id="g19">
        <g
           id="g21"
           clip-path="url(#clipPath25)">
          <path
             d="M 0,0 H 841.89 V 595.276 H 0 Z"
             style="fill:none;stroke:#87c9f3;stroke-width:1;stroke-linecap:butt;stroke-linejoin:miter;stroke-miterlimit:4;stroke-dasharray:none;stroke-opacity:1"
             id="path27" />
        </g>
      </g>
      <text
         transform="matrix(1,0,0,-1,59.5275,320.445)"
         style="font-variant:normal;font-weight:800;font-stretch:normal;font-size:50px;font-family:'Gravesend Sans Inline';-inkscape-font-specification:GravesendSans-Inline;writing-mode:lr-tb;fill:#213c47;fill-opacity:1;fill-rule:nonzero;stroke:none"
         id="text31"><tspan
           x="0 45.150002 81.099998 120 155.95 191.89999 220.45 232.85001 267.75 303.70001"
           y="0"
           sodipodi:role="line"
           id="tspan29">MANUAL DA</tspan></text>
      <text
         transform="matrix(1,0,0,-1,59.5275,269.445)"
         style="font-variant:normal;font-weight:800;font-stretch:normal;font-size:50px;font-family:'Gravesend Sans Inline';-inkscape-font-specification:GravesendSans-Inline;writing-mode:lr-tb;fill:#213c47;fill-opacity:1;fill-rule:nonzero;stroke:none"
         id="text35"><tspan
           x="0 15.75 52.150002 84.800003 123.7 153 168.75 203.64999 239.60001 276 308.64999"
           y="0"
           sodipodi:role="line"
           id="tspan33">IDENTIDADE</tspan></text>
      <text
         transform="matrix(1,0,0,-1,59.5275,218.445)"
         style="font-variant:normal;font-weight:800;font-stretch:normal;font-size:50px;font-family:'Gravesend Sans Inline';-inkscape-font-specification:GravesendSans-Inline;writing-mode:lr-tb;fill:#213c47;fill-opacity:1;fill-rule:nonzero;stroke:none"
         id="text39"><tspan
           x="0 34.549999 50.299999 82 117.95 153.89999"
           y="0"
           sodipodi:role="line"
           id="tspan37">VISUAL</tspan></text>
      <text
         transform="matrix(1,0,0,-1,55.2756,63.8308)"
         style="font-style:normal;font-variant:normal;font-weight:normal;font-stretch:normal;font-size:6px;font-family:sans-serif;-inkscape-font-specification:'sans-serif, Normal';font-variant-ligatures:normal;font-variant-caps:normal;font-variant-numeric:normal;font-variant-east-asian:normal;writing-mode:lr-tb;fill:#213c47;fill-opacity:1;fill-rule:nonzero;stroke:none"
         id="text43"><tspan
           sodipodi:role="line"
           id="tspan31417"
           x="0"
           y="0">MISSÃO PAZ - PESC - VERSÃO 1.0</tspan></text>
      <g
         id="g139"
         transform="translate(101.7282,534.189)" />
      <g
         id="g191">
        <g
           id="g193"
           clip-path="url(#clipPath197)">
          <g
             id="g199"
             transform="matrix(76.705425,0,0,121.60616,766.3576,402.30501)" />
        </g>
      </g>
      <g
         id="Logo_Colorido_Horizontal"
         transform="matrix(0.09199571,0,0,-0.0864855,68.379843,552.91551)"
         style="image-rendering:auto">	<g
   id="Azul_Claro">		<path
   class="st0"
   d="m 217.82,128.5 c -28.16,0 -45.68,15.47 -45.68,40.35 v 40.45 c 0,24.84 17.49,40.28 45.68,40.28 h 36.11 V 128.5 Z"
   id="path324" />
		<path
   class="st0"
   d="m 425.11,523.64 v -40.45 c 0,-24.84 -17.49,-40.28 -45.65,-40.28 h -36.11 v 121.04 h 36.11 c 28.16,0 45.65,-15.44 45.65,-40.31"
   id="path326" />
	</g>
	<g
   id="Laranja_1_">		<path
   class="st1"
   d="m 120.91,472.37 h 40.45 c 24.84,0 40.28,-17.49 40.28,-45.65 V 390.61 H 80.6 v 36.11 c 0,28.16 15.47,45.65 40.31,45.65"
   id="path329" />
		<path
   class="st1"
   d="m 475.56,219.55 h -40.45 c -24.87,0 -40.35,17.49 -40.35,45.68 v 36.11 H 515.8 v -36.11 c 0,-28.2 -15.44,-45.68 -40.24,-45.68"
   id="path331" />
	</g>
	<path
   class="st2"
   d="m 934.86,142.59 c 0,-13.6 -9.86,-22.68 -23.74,-22.68 -12.54,0 -22.4,7.21 -22.4,23.78 0,9.57 3.75,18.12 11.73,22.93 l 45.33,29.61 c 13.6,8.8 20.24,26.14 20.24,42.4 0,32.01 -22.93,49.07 -53.6,49.07 -32.26,0 -54.94,-19.18 -54.94,-47.45 v -10.42 h 29.32 v 10.42 c 0,14.1 10.39,23.71 25.86,23.71 13.32,0 24.02,-7.17 24.02,-24.24 0,-9.61 -3.75,-18.69 -11.2,-22.97 l -45.33,-29.57 c -14.1,-9.89 -21.06,-25.86 -21.06,-41.62 0,-32.82 22.15,-49.32 51.72,-49.32 31.76,0 53.6,18.69 53.6,46.39 v 9.89 H 934.8 v -9.93 z"
   id="path334" />
<path
   class="st2"
   d="m 1062.05,142.59 c 0,-13.6 -9.89,-22.68 -23.74,-22.68 -12.54,0 -22.4,7.21 -22.4,23.78 0,9.57 3.75,18.12 11.73,22.93 l 45.33,29.61 c 13.6,8.8 20.28,26.14 20.28,42.4 0,32.01 -22.93,49.07 -53.63,49.07 -32.26,0 -54.9,-19.18 -54.9,-47.45 v -10.42 h 29.32 v 10.42 c 0,14.1 10.39,23.71 25.86,23.71 13.32,0 23.99,-7.17 23.99,-24.24 0,-9.61 -3.74,-18.69 -11.2,-22.97 l -45.33,-29.57 c -14.13,-9.89 -21.06,-25.86 -21.06,-41.62 0,-32.82 22.12,-49.32 51.76,-49.32 31.73,0 53.6,18.69 53.6,46.39 v 9.89 h -29.61 z"
   id="path336" />
<path
   class="st2"
   d="m 1145.5,226.12 h 43.21 l -21.62,-88.01 z m 33.89,-152.63 c 7.74,0 13.04,-9.5 13.04,-9.5 l 12.26,8.27 c 0,0 -7.21,17.81 -22.68,17.81 -10.95,0 -19.47,-9.04 -26.92,-9.04 -7.74,0 -13.07,9.75 -13.07,9.75 l -12.51,-8.51 c 0,0 7.17,-17.77 22.93,-17.77 10.91,-0.02 19.46,8.99 26.95,8.99 m -78.97,212.37 51.48,-188.31 h 30.42 l 51.48,188.31 h -30.14 l -9.04,-36.32 h -54.94 l -8.8,36.32 z"
   id="path338" />
<path
   class="st2"
   d="m 1320.64,143.12 c 0,-14.17 -11.2,-23.21 -25.58,-23.21 -14.94,0 -25.33,9.08 -25.33,23.21 v 97.58 c 0,14.38 10.39,23.18 25.33,23.18 14.42,0 25.58,-9.04 25.58,-23.46 z m -25.58,144.54 c -31.76,0 -54.66,-20.03 -54.66,-49.6 v -92.25 c 0,-29.61 22.93,-49.6 54.66,-49.6 31.73,0 54.94,19.96 54.94,49.6 v 92.25 c 0,29.61 -23.21,49.6 -54.94,49.6"
   id="path340" />
<path
   class="st2"
   d="m 934.05,580.73 h 89.78 L 978.96,395.21 Z M 840.42,704.36 947.37,313.14 h 63.17 l 106.91,391.22 h -62.61 l -18.83,-73.59 H 921.9 l -18.27,73.59 z"
   id="path342" />
<polygon
   class="st2"
   points="1145.29,313.1 1349.72,313.1 1349.72,350.84 1212.35,657.12 1349.72,657.12 1349.72,704.11 1140.74,704.32 1140.74,669.73 1279.94,363.2 1145.29,363.2 "
   id="polygon344" />
<path
   class="st2"
   d="m 703.69,363.45 v 136.41 h 44.94 c 32.05,0 53.99,-18.58 53.99,-49 v -38.33 c 0,-29.89 -21.91,-49.07 -53.99,-49.07 h -44.94 z m 0,186.83 v 153.9 h -61.83 v -390.9 h 108.5 c 66.85,0 114.65,42.22 114.65,104.69 v 27.59 c 0,62.47 -47.8,104.72 -114.65,104.72 z"
   id="path346" />
<path
   class="st2"
   d="M 580.88,378.46 V 263.71 c 0,-70.73 -44.59,-121.29 -110.59,-121.29 h -29.15 c -61.69,0 -104.72,44.16 -110.09,107.69 V 63.98 H 216.3 c -70.73,0 -121.29,44.59 -121.29,110.59 v 29.15 c 0,59.32 40.88,101.4 100.55,109.28 L 17,313.46 v 114.75 c 0,70.73 44.59,121.29 110.59,121.29 h 29.15 c 58.51,0 100.2,-39.71 108.93,-98.01 v 252.83 h 65.72 l 0.21,-75.5 h 49.36 c 70.73,0 121.29,-44.66 121.29,-110.66 v -29.15 c 0,-62.29 -45.05,-105.5 -109.6,-110.16 z M 224.5,426.73 c 0,40.98 -25.37,68.51 -63.14,68.51 h -40.45 c -37.2,0 -63.21,-28.19 -63.21,-68.51 v -59 h 166.76 v 59 z M 217.82,272.4 c -40.98,0 -68.54,-25.37 -68.54,-63.14 v -40.45 c 0,-37.2 28.16,-63.17 68.54,-63.17 h 58.97 V 272.4 Z m 48.23,73.52 c 0,-18.37 14.87,-33.25 33.25,-33.25 18.37,0 33.25,14.87 33.25,33.25 0,18.38 -14.87,33.25 -33.25,33.25 -18.38,0 -33.25,-14.87 -33.25,-33.25 m 181.92,137.27 v 40.45 c 0,37.2 -28.19,63.17 -68.51,63.17 h -59 V 420.05 h 59 c 40.98,0.03 68.51,25.37 68.51,63.14 M 371.9,324.16 v -58.97 c 0,-40.35 26,-68.54 63.21,-68.54 h 40.45 c 37.77,0 63.14,27.52 63.14,68.54 v 58.97 H 371.9 Z"
   id="path348" />
<polygon
   class="st2"
   points="642.18,97.27 666.74,97.58 709.66,207.11 752.84,97.58 776.9,97.58 776.9,285.97 750.22,285.97 750.22,169.69 717.4,252.58 702.21,252.58 669.14,169.45 669.14,285.97 642.18,285.83 "
   id="polygon350" />
<rect
   x="807.21002"
   y="97.550003"
   class="st2"
   height="188.42"
   id="rect352"
   width="27.102001" />
</g>
      <path
         class="st2"
         d="m 765.16568,133.37757 v 26.65446 c 0,16.42936 -11.26757,28.17359 -27.94531,28.17359 h -7.366 c -15.58863,0 -26.46201,-10.25761 -27.81897,-25.01455 v 43.23481 h -28.99652 c -17.87297,0 -30.64914,-10.35749 -30.64914,-25.68816 v -6.77104 c 0,-13.77902 10.33009,-23.55348 25.40829,-25.38387 l -45.12086,-0.10684 v -26.65446 c 0,-16.42937 11.26758,-28.173593 27.94532,-28.173593 h 7.366 c 14.78506,0 25.31983,9.223953 27.52584,22.766043 V 57.685898 h 16.60699 l 0.053,17.537351 h 12.47293 c 17.87297,0 30.64913,10.373755 30.64913,25.704411 v 6.77105 c 0,14.4689 -11.38383,24.50584 -27.69515,25.58828 z m -90.05472,-11.21228 c 0,-9.51896 -6.41083,-15.9137 -15.95503,-15.9137 H 648.9345 c -9.40019,0 -15.97273,6.54805 -15.97273,15.9137 v 13.70468 h 42.13908 v -13.70468 z m -1.68799,35.8482 c -10.35536,0 -17.31957,5.89301 -17.31957,14.66634 v 9.39583 c 0,8.64093 7.11583,14.67331 17.31957,14.67331 h 14.90131 v -38.73548 z m 12.18738,-17.07742 c 0,4.26703 3.75755,7.72339 8.40205,7.72339 4.64196,0 8.40204,-3.45405 8.40204,-7.72339 0,-4.26937 -3.75755,-7.72342 -8.40204,-7.72342 -4.6445,0 -8.40205,3.45405 -8.40205,7.72342 m 45.96991,-31.88547 v -9.395849 c 0,-8.640919 -7.12341,-14.673301 -17.31199,-14.673301 h -14.9089 v 38.73549 h 14.9089 c 10.35535,-0.007 17.31199,-5.89302 17.31199,-14.66634 m -19.22236,36.93993 v 13.69772 c 0,9.37262 6.57003,15.92067 15.97273,15.92067 h 10.22144 c 9.54421,0 15.95503,-6.39242 15.95503,-15.92067 v -13.69772 z"
         id="path4461"
         style="fill:#213c47;fill-opacity:1;stroke-width:0.242272" />
    </g>
  </g>
  <style
     type="text/css"
     id="style322">	.st0{fill:#85C9F0;}	.st1{fill:#F3953F;}	.st2{fill:#213C47;}</style>
  <style
     type="text/css"
     id="style4435">	.st0{fill:#85C9F0;}	.st1{fill:#F3953F;}	.st2{fill:#213C47;}</style>
</svg>
